<svg width="800" height="520" viewBox="0 0 800 520" fill="none" xmlns="http://www.w3.org/2000/svg">
<path fill-rule="evenodd" clip-rule="evenodd" d="M0 0C266.64 0 533.359 0 800 0C800 12.999 800 501.301 800 514.3C798.021 514.049 796.81 512.79 794.5 513.3C792.427 513.758 790.102 516.636 786.5 515.3C785.137 514.794 785.555 513.758 783.5 513.3C778.611 519.721 765.713 518.743 757 516.8C751.679 515.613 749.204 519.495 745 518.3C742.856 517.691 742.23 514.966 740 515.8C737.152 516.536 737.046 518.154 733 518.3C732.62 517.831 728.857 514.431 728.5 514.3C725.916 513.352 721.938 515.288 720 513.8C719.235 513.213 718.018 510.621 717.5 509.8C714.162 511.796 704.635 514.509 698.5 512.8C696.221 512.165 694.973 508.784 691.5 509.8C691 510.3 690.5 510.8 690 511.3C686.334 511.3 682.666 511.3 679 511.3C676.646 511.989 672.109 513.712 670 514.3C667.5 513.967 665 513.633 662.5 513.3C658.461 514.64 658.715 518.181 651.5 518.3C649.303 515.291 647.427 516.874 643 515.8C642.762 515.742 642.018 514.716 641.5 514.8C640.23 515.006 639.467 516.904 637 516.3C634.544 515.699 632.979 512.866 631 512.3C628.542 511.597 625.047 513.47 622.5 511.8C621.217 510.958 619.95 508.452 618.5 507.8C616.834 507.633 615.166 507.467 613.5 507.3C612.834 506.633 612.166 505.967 611.5 505.3C609.392 504.726 609.076 506.448 608 506.8C605.5 506.8 603 506.8 600.5 506.8C599.287 507.172 598.176 508.738 596 508.3C593.523 507.802 592.648 505.49 591 504.8C588.5 504.967 586 505.133 583.5 505.3C582.847 505.139 580.955 503.904 580.5 503.8C578.004 503.23 574.029 505.254 572.5 505.8C570.167 505.8 567.833 505.8 565.5 505.8C562.116 506.801 557.419 506.886 554 507.8C551 507.967 548 508.133 545 508.3C542.924 509.11 539.666 511.228 537.5 511.8C532.913 513.011 523.442 507.277 520 507.8C511.449 509.1 504.805 513.492 497 514.8C492.428 515.566 488.295 512.091 483 513.8C480.205 514.702 479.311 516.217 475 516.3C474.918 516.19 460.672 507.351 460.5 507.3C457.924 506.533 450.85 508.433 447 507.8C445.256 507.513 445.834 505.769 443.5 506.3C443 506.8 442.5 507.3 442 507.8C438 507.8 434 507.8 430 507.8C429.5 508.467 429 509.133 428.5 509.8C425.857 511.422 421.627 510.554 419 509.8C416.334 509.8 413.666 509.8 411 509.8C408.152 508.898 397.328 505.088 395 508.8C393.825 510.327 394.081 512.218 393.5 513.3C392.91 513.701 392.659 513.687 391.5 513.8C389.3 511.678 383.601 515.588 381.5 514.8C380.029 514.248 379.953 512.909 377 512.8C377 513.133 377 513.467 377 513.8C377.376 514.336 377.301 514.273 377.5 515.3C376.476 515.656 375.163 515.797 373.5 515.8C372.927 515.072 372.499 514.7 372 513.8C368.337 516.691 355.6 521.178 348 518.8C346.379 518.293 346.316 516.146 343.5 516.8C343.167 517.133 342.833 517.467 342.5 517.8C338.334 517.633 334.166 517.467 330 517.3C328.495 517.909 324.433 520.775 321 519.8C320.5 519.3 320 518.8 319.5 518.3C317 518.133 314.5 517.967 312 517.8C311.5 517.3 311 516.8 310.5 516.3C307.814 515.254 305.318 516.284 303 515.3C301.358 514.603 300.379 512.821 298.5 512.3C294.334 512.133 290.166 511.967 286 511.8C285.049 511.517 284.137 510.065 283.5 509.8C280.667 509.8 277.833 509.8 275 509.8C273.456 511.763 268.424 515.029 266 515.8C261 515.633 256 515.467 251 515.3C250.667 515.8 250.333 516.3 250 516.8C244.146 519.45 235.539 513.506 232 511.8C229.459 510.575 228.34 513.346 226 512.8C222.661 512.022 218.59 509.132 214.5 508.8C210.859 513.878 205.933 509.047 201 508.3C196.103 507.558 192.704 513.07 187 510.8C184.368 509.752 180.596 506.39 175.5 507.8C172.346 508.673 169.228 511.916 166 512.8C163.085 513.598 160.123 511.786 158 511.3C152.353 510.007 149.567 513.947 145 512.8C142.958 512.287 141.72 510.482 140 509.8C137.414 508.775 135.393 509.077 133 507.8C132.333 507.133 131.667 506.467 131 505.8C127 505.8 123 505.8 119 505.8C118.212 505.534 117.289 504.065 116.5 503.8C114.212 503.031 100.708 503.082 99 503.8C97.717 504.339 95.279 506.319 93.5 506.8C90.894 507.505 89.987 505.96 87.5 505.8C86.515 507.386 85.223 508.484 84 509.8C78.458 509.853 73.294 509.182 69 508.8C67.945 510.518 67.311 511.206 64.5 511.3C63.487 510.24 63.029 509.975 61 509.8C60.014 511.224 59.494 511.307 57 511.3C55.007 509.333 53.357 510.79 50 509.8C48.147 509.254 42.788 504.804 40 505.8C39.346 506.033 37.982 507.661 37 507.8C34.471 508.158 33.179 504.233 30 505.8C26.112 507.716 23.286 511.453 18 511.8C11.278 505.82 5.213 512.842 0 513.8C0 500.968 0 12.832 0 0Z" fill="white"/>
</svg>
